HIERARCHY
ROOT hip
{
  OFFSET 0 0 0
  CHANNELS 6 Xposition Yposition Zposition Zrotation Yrotation Xrotation
  JOINT abdomen
  {
    OFFSET 0 20.6881 -0.73152
    CHANNELS 3 Zrotation Xrotation Yrotation
    JOINT chest
    {
      OFFSET 0 11.7043 -0.48768
      CHANNELS 3 Zrotation Xrotation Yrotation
      JOINT neck
      {
        OFFSET 0 22.1894 -2.19456
        CHANNELS 3 Zrotation Xrotation Yrotation
        JOINT head
        {
          OFFSET -0.24384 7.07133 1.2192
          CHANNELS 3 Zrotation Xrotation Yrotation
          JOINT leftEye
          {
            OFFSET 4.14528 8.04674 8.04672
            CHANNELS 3 Zrotation Xrotation Yrotation
            End Site
            {
              OFFSET 1 0 0
            }
          }
          JOINT rightEye
          {
            OFFSET -3.6576 8.04674 8.04672
            CHANNELS 3 Zrotation Xrotation Yrotation
            End Site
            {
              OFFSET 1 0 0
            }
          }
        }
      }
      JOINT rCollar
      {
        OFFSET -2.68224 19.2634 -4.8768
        CHANNELS 3 Zrotation Xrotation Yrotation
        JOINT rShldr
        {
          OFFSET -8.77824 -1.95073 1.46304
          CHANNELS 3 Zrotation Xrotation Yrotation
          JOINT rForeArm
          {
            OFFSET -28.1742 -1.7115 0.48768
            CHANNELS 3 Zrotation Xrotation Yrotation
            JOINT rHand
            {
              OFFSET -22.5879 0.773209 7.07136
              CHANNELS 3 Zrotation Xrotation Yrotation
              JOINT rThumb1
              {
                OFFSET -1.2192 -0.487915 3.41376
                CHANNELS 3 Zrotation Xrotation Yrotation
                JOINT rThumb2
                {
                  OFFSET -3.37035 -0.52449 3.41376
                  CHANNELS 3 Zrotation Xrotation Yrotation
                  End Site
                  {
                    OFFSET -1.78271 -1.18214 1.43049
                  }
                }
              }
              JOINT rIndex1
              {
                OFFSET -7.75947 0.938293 5.60832
                CHANNELS 3 Zrotation Xrotation Yrotation
                JOINT rIndex2
                {
                  OFFSET -2.54057 -0.884171 1.56538
                  CHANNELS 3 Zrotation Xrotation Yrotation
                  End Site
                  {
                    OFFSET -1.62519 -0.234802 1.16502
                  }
                }
              }
              JOINT rMid1
              {
                OFFSET -8.24714 1.18213 3.41376
                CHANNELS 3 Zrotation Xrotation Yrotation
                JOINT rMid2
                {
                  OFFSET -3.10165 -0.590103 1.0647
                  CHANNELS 3 Zrotation Xrotation Yrotation
                  End Site
                  {
                    OFFSET -2.48547 -0.328903 0.83742
                  }
                }
              }
              JOINT rRing1
              {
                OFFSET -8.82822 0.546677 1.51678
                CHANNELS 3 Zrotation Xrotation Yrotation
                JOINT rRing2
                {
                  OFFSET -2.60934 -0.819778 -0.0198488
                  CHANNELS 3 Zrotation Xrotation Yrotation
                  End Site
                  {
                    OFFSET -2.33842 -0.294052 0.168128
                  }
                }
              }
              JOINT rPinky1
              {
                OFFSET -8.27202 -0.0477905 -0.4584
                CHANNELS 3 Zrotation Xrotation Yrotation
                JOINT rPinky2
                {
                  OFFSET -1.82734 -0.647385 -0.700984
                  CHANNELS 3 Zrotation Xrotation Yrotation
                  End Site
                  {
                    OFFSET -1.69225 -0.51767 -0.607171
                  }
                }
              }
            }
          }
        }
      }
      JOINT lCollar
      {
        OFFSET 2.68224 19.2634 -4.8768
        CHANNELS 3 Zrotation Xrotation Yrotation
        JOINT lShldr
        {
          OFFSET 8.77824 -1.95073 1.46304
          CHANNELS 3 Zrotation Xrotation Yrotation
          JOINT lForeArm
          {
            OFFSET 28.1742 -1.7115 0.48768
            CHANNELS 3 Zrotation Xrotation Yrotation
            JOINT lHand
            {
              OFFSET 22.5879 0.773209 7.07136
              CHANNELS 3 Zrotation Xrotation Yrotation
              JOINT lThumb1
              {
                OFFSET 1.2192 -0.487915 3.41376
                CHANNELS 3 Zrotation Xrotation Yrotation
                JOINT lThumb2
                {
                  OFFSET 3.37035 -0.52449 3.41376
                  CHANNELS 3 Zrotation Xrotation Yrotation
                  End Site
                  {
                    OFFSET 1.78271 -1.18214 1.43049
                  }
                }
              }
              JOINT lIndex1
              {
                OFFSET 7.75947 0.938293 5.60832
                CHANNELS 3 Zrotation Xrotation Yrotation
                JOINT lIndex2
                {
                  OFFSET 2.54057 -0.884171 1.56538
                  CHANNELS 3 Zrotation Xrotation Yrotation
                  End Site
                  {
                    OFFSET 1.62519 -0.234802 1.16502
                  }
                }
              }
              JOINT lMid1
              {
                OFFSET 8.24714 1.18213 3.41376
                CHANNELS 3 Zrotation Xrotation Yrotation
                JOINT lMid2
                {
                  OFFSET 3.10165 -0.590103 1.0647
                  CHANNELS 3 Zrotation Xrotation Yrotation
                  End Site
                  {
                    OFFSET 2.48547 -0.328903 0.83742
                  }
                }
              }
              JOINT lRing1
              {
                OFFSET 8.82822 0.546677 1.51678
                CHANNELS 3 Zrotation Xrotation Yrotation
                JOINT lRing2
                {
                  OFFSET 2.60934 -0.819778 -0.0198488
                  CHANNELS 3 Zrotation Xrotation Yrotation
                  End Site
                  {
                    OFFSET 2.33842 -0.294052 0.168128
                  }
                }
              }
              JOINT lPinky1
              {
                OFFSET 8.27202 -0.0477905 -0.4584
                CHANNELS 3 Zrotation Xrotation Yrotation
                JOINT lPinky2
                {
                  OFFSET 1.82734 -0.647385 -0.700984
                  CHANNELS 3 Zrotation Xrotation Yrotation
                  End Site
                  {
                    OFFSET 1.69225 -0.51767 -0.607171
                  }
                }
              }
            }
          }
        }
      }
    }
  }
  JOINT rButtock
  {
    OFFSET -8.77824 4.35084 1.2192
    CHANNELS 3 Zrotation Xrotation Yrotation
    JOINT rThigh
    {
      OFFSET 0 -1.70687 -2.19456
      CHANNELS 3 Zrotation Xrotation Yrotation
      JOINT rShin
      {
        OFFSET 0 -36.8199 0.73152
        CHANNELS 3 Zrotation Xrotation Yrotation
        JOINT rFoot
        {
          OFFSET 0.73152 -45.1104 -5.12064
          CHANNELS 3 Zrotation Xrotation Yrotation
          End Site
          {
            OFFSET -1.1221 -3.69964 12.103
          }
        }
      }
    }
  }
  JOINT lButtock
  {
    OFFSET 8.77824 4.35084 1.2192
    CHANNELS 3 Zrotation Xrotation Yrotation
    JOINT lThigh
    {
      OFFSET 0 -1.70687 -2.19456
      CHANNELS 3 Zrotation Xrotation Yrotation
      JOINT lShin
      {
        OFFSET 0 -36.8199 0.73152
        CHANNELS 3 Zrotation Xrotation Yrotation
        JOINT lFoot
        {
          OFFSET -0.73152 -45.1104 -5.12064
          CHANNELS 3 Zrotation Xrotation Yrotation
          End Site
          {
            OFFSET 1.1221 -3.69964 12.103
          }
        }
      }
    }
  }
}
MOTION
Frames:	9
Frame Time:	0.00833333
-4.07142 84.2564 36.8964 0.0 0.0 0.0 -1.24151 -0.00398119 -0.0340789 -0.342494 -0.00249265 -0.0593272 1.18903e-14 7.95139e-16 1.49088e-16 3.61415e-14 9.54166e-15 4.30182e-16 -0.0 0.0 0.0 -0.0 0.0 0.0 6.1112e-15 -5.20257e-17 1.98785e-16 1.27643e-13 -8.07563e-16 2.98177e-15 2.18395e-12 -6.9674e-13 6.36111e-15 2.51145e-11 4.62622e-13 3.4668e-13 5.9217e-11 -5.14476e-13 7.53791e-13 1.02262e-10 -8.90555e-13 1.30562e-12 5.92251e-11 -5.10877e-13 7.4743e-13 7.73091 5.47488 0.417314 5.92163e-11 -5.14455e-13 7.56972e-13 2.90554 0.965183 0.102902 5.92185e-11 -5.14256e-13 7.58562e-13 10.2786 0.731801 0.0259123 5.92156e-11 -5.1366e-13 7.63333e-13 2.22167 -0.733487 -0.20892 5.91566e-15 -5.12492e-17 -9.93923e-17 1.26082e-13 -8.01351e-16 1.19271e-15 2.19945e-12 6.1822e-13 3.18055e-15 2.50826e-11 -8.50475e-13 3.56222e-13 5.91926e-11 -5.08591e-13 7.56972e-13 1.02229e-10 -8.84194e-13 1.31039e-12 5.91893e-11 -5.06503e-13 7.69694e-13 -7.73091 5.47488 -0.417314 5.91927e-11 -5.0869e-13 7.50611e-13 -2.90554 0.965183 -0.102902 5.91878e-11 -5.08889e-13 7.58562e-13 -10.2786 0.731801 -0.0259123 5.91967e-11 -5.05708e-13 7.53791e-13 -2.22167 -0.733487 0.20892 -2.03217e-16 0.0 -3.88251e-19 -0.453834 -1.92099 -0.00952721 -0.00915565 -2.07857 -0.0755525 -0.487459 3.99699 0.136654 2.03217e-16 0.0 3.88251e-19 -1.43728 -5.97115 0.129662 -0.00126423 5.25795 -0.0454138 0.50782 0.710745 -0.0722746
-4.46547 84.018 35.753 -1.4745 -0.2008 1.6657 -0.961368 0.36218 0.0586205 -0.211845 -1.49555 -0.0169224 -0.663722 2.36146 -0.461387 1.69272 -1.76303 -0.737869 -0.0 0.0 0.0 -0.0 0.0 0.0 -7.93351e-15 -4.73043e-15 -1.36354e-15 23.1265 6.45375 -4.27933 -6.31752 -3.4639 9.13789 0.0707458 5.90583 0.814168 6.09496e-11 -1.59406e-11 2.52382e-12 1.0508e-10 -2.69635e-11 3.81417e-12 6.09515e-11 -1.59333e-11 2.51376e-12 7.73091 5.47488 0.417314 6.09454e-11 -1.59371e-11 2.52613e-12 2.90554 0.965183 0.102902 6.09515e-11 -1.59355e-11 2.52721e-12 10.2786 0.731801 0.0259123 6.0949e-11 -1.59365e-11 2.53249e-12 2.22167 -0.733487 -0.20892 -8.09869e-15 -4.73085e-15 -1.73548e-15 -23.3317 7.01844 3.18951 5.98726 -3.19835 -8.77417 -0.00825919 2.01615 -0.282717 9.49737e-11 1.00412e-10 1.64454e-11 1.64111e-10 1.73592e-10 2.79754e-11 9.49687e-11 1.00411e-10 1.6457e-11 -7.73091 5.47488 -0.417314 9.49727e-11 1.00408e-10 1.64426e-11 -2.90554 0.965183 -0.102902 9.49668e-11 1.00407e-10 1.64462e-11 -10.2786 0.731801 -0.0259123 9.4978e-11 1.0041e-10 1.64412e-11 -2.22167 -0.733487 0.20892 -2.03217e-16 0.0 -3.88251e-19 -1.69336 -0.461522 1.64676 -0.00400067 -1.50361 -0.039889 -0.628548 -1.24876 -3.64991 2.03217e-16 0.0 3.88251e-19 1.23077 -6.94908 -0.989438 -0.00862402 9.56588 -0.157458 0.820305 -3.97529 3.47671
-4.47045 84.0184 35.7503 -1.4922 -0.2224 1.6742 -0.667314 0.750222 0.157002 -0.0710832 -3.07466 0.0280728 -1.32717 4.85898 -0.951307 3.43925 -3.62893 -1.51847 -0.0 0.0 0.0 -0.0 0.0 0.0 -2.40678e-14 -1.08802e-14 -3.23025e-15 48.6441 13.1546 -8.98501 -11.8087 -6.83144 18.9022 -0.0407576 12.1461 1.70425 6.75449e-11 -4.29727e-11 1.29572e-11 1.16429e-10 -7.3115e-11 2.11731e-11 6.75399e-11 -4.29611e-11 1.29431e-11 7.73091 5.47488 0.417314 6.7537e-11 -4.29652e-11 1.29586e-11 2.90554 0.965183 0.102902 6.75473e-11 -4.29622e-11 1.29591e-11 10.2786 0.731801 0.0259123 6.75453e-11 -4.29649e-11 1.29649e-11 2.22167 -0.733487 -0.20892 -2.42012e-14 -1.08819e-14 -3.68373e-15 -48.8685 14.3671 6.72303 11.2634 -6.32904 -18.1354 0.00469292 4.14601 -0.58257 1.41209e-10 2.16898e-10 3.37534e-11 2.44044e-10 3.74948e-10 5.73422e-11 1.41203e-10 2.16894e-10 3.37638e-11 -7.73091 5.47488 -0.417314 1.41207e-10 2.16889e-10 3.37544e-11 -2.90554 0.965183 -0.102902 1.412e-10 2.16888e-10 3.37533e-11 -10.2786 0.731801 -0.0259123 1.41214e-10 2.1689e-10 3.37481e-11 -2.22167 -0.733487 0.20892 -2.03217e-16 0.0 -3.88251e-19 -3.09617 1.07935 3.39817 0.000670267 -0.895811 -0.00221459 -1.53326 -6.73906 -7.70356 2.03217e-16 0.0 3.88251e-19 4.00839 -7.97916 -2.17951 0.00252994 14.1198 -0.280034 1.78722 -8.87374 7.30019
-4.48036 84.019 35.7495 -1.5291 -0.2524 1.6751 -0.404637 1.09449 0.24406 0.0560933 -4.48167 0.0681127 -1.87633 7.08255 -1.39362 4.94148 -5.28557 -2.22201 -0.0 0.0 0.0 -0.0 0.0 0.0 -3.60229e-14 -1.40872e-14 -4.48818e-15 72.3837 18.9172 -13.4982 -15.7421 -9.33611 27.7619 -0.312412 17.7028 2.55038 6.44147e-11 -4.67929e-11 6.06388e-12 1.10715e-10 -7.91094e-11 8.83128e-12 6.44043e-11 -4.67781e-11 6.04641e-12 7.73091 5.47488 0.417314 6.44038e-11 -4.67823e-11 6.06445e-12 2.90554 0.965183 0.102902 6.44176e-11 -4.67781e-11 6.06451e-12 10.2786 0.731801 0.0259123 6.44159e-11 -4.67822e-11 6.07081e-12 2.22167 -0.733487 -0.20892 -3.61274e-14 -1.40901e-14 -5.00767e-15 -72.4652 20.7852 10.1646 15.1099 -8.69664 -26.6108 0.0351947 6.04785 -0.852371 1.66536e-10 3.02253e-10 4.78222e-11 2.87874e-10 5.22545e-10 8.13054e-11 1.66528e-10 3.02247e-10 4.78316e-11 -7.73091 5.47488 -0.417314 1.66533e-10 3.02241e-10 4.78265e-11 -2.90554 0.965183 -0.102902 1.66525e-10 3.02239e-10 4.78214e-11 -10.2786 0.731801 -0.0259123 1.66541e-10 3.02241e-10 4.7816e-11 -2.22167 -0.733487 0.20892 -2.03217e-16 0.0 -3.88251e-19 -4.42538 2.44763 4.96369 0.00416248 -0.353686 0.0313804 -3.00796 -11.5203 -11.4535 2.03217e-16 0.0 3.88251e-19 6.45102 -8.89395 -3.24346 0.0297592 18.1814 -0.395087 3.21466 -13.1392 10.8365
-4.482 84.0171 35.7449 -1.5406 -0.2437 1.6947 -0.217858 1.32934 0.302767 0.14458 -5.45843 0.095517 -2.22105 8.62302 -1.70791 5.92947 -6.42237 -2.72489 -0.0 0.0 0.0 -0.0 0.0 0.0 -3.75305e-14 -9.93729e-15 -4.22417e-15 89.517 22.7564 -16.9009 -18.0034 -10.6904 34.0279 -0.606527 21.5647 3.18407 3.69708e-11 7.41705e-12 -4.41461e-11 6.23464e-11 1.52889e-11 -7.77622e-11 3.69584e-11 7.43216e-12 -4.41652e-11 7.73091 5.47488 0.417314 3.69589e-11 7.42838e-12 -4.41461e-11 2.90554 0.965183 0.102902 3.69743e-11 7.43306e-12 -4.41461e-11 10.2786 0.731801 0.0259123 3.69722e-11 7.42858e-12 -4.41397e-11 2.22167 -0.733487 -0.20892 -3.76126e-14 -9.94079e-15 -4.77083e-15 -89.4225 25.1333 12.8086 17.3585 -10.0131 -32.5962 0.0672714 7.38016 -1.04305 1.3959e-10 3.09783e-10 5.37927e-11 2.41447e-10 5.35749e-10 9.17598e-11 1.3958e-10 3.09776e-10 5.38023e-11 -7.73091 5.47488 -0.417314 1.39586e-10 3.09769e-10 5.37991e-11 -2.90554 0.965183 -0.102902 1.39577e-10 3.09768e-10 5.37919e-11 -10.2786 0.731801 -0.0259123 1.39595e-10 3.09769e-10 5.37864e-11 -2.22167 -0.733487 0.20892 -2.03217e-16 0.0 -3.88251e-19 -5.39209 3.39495 6.0582 0.00622196 0.0242567 0.0548069 -4.42121 -14.7516 -14.1884 2.03217e-16 0.0 3.88251e-19 8.13838 -9.52945 -3.97996 0.058925 21.0128 -0.479764 4.53276 -16.0232 13.3994
-4.47873 84.0126 35.7337 -1.5414 -0.2011 1.7426 -0.131062 1.40841 0.320699 0.173915 -5.83124 0.104709 -2.30252 9.2038 -1.83895 6.21018 -6.82624 -2.94946 -0.0 0.0 0.0 -0.0 0.0 0.0 -2.19588e-14 9.07826e-15 -1.20164e-15 96.3633 24.2183 -18.3031 -18.7951 -11.1184 36.5015 -0.746178 23.0618 3.44275 -4.06979e-11 1.75358e-10 -1.77287e-10 -7.41047e-11 3.06515e-10 -3.06522e-10 -4.07064e-11 1.75369e-10 -1.77304e-10 7.73091 5.47488 0.417314 -4.07078e-11 1.75367e-10 -1.77287e-10 2.90554 0.965183 0.102902 -4.06937e-11 1.7537e-10 -1.77286e-10 10.2786 0.731801 0.0259123 -4.06973e-11 1.75367e-10 -1.7728e-10 2.22167 -0.733487 -0.20892 -2.20269e-14 9.07463e-15 -1.71064e-15 -96.1877 26.7859 13.9152 18.1547 -10.4426 -34.9611 0.082395 7.90748 -1.11898 2.77235e-11 1.99924e-10 4.96535e-11 4.84698e-11 3.4632e-10 8.55105e-11 2.77137e-11 1.9992e-10 4.9665e-11 -7.73091 5.47488 -0.417314 2.77204e-11 1.99913e-10 4.96601e-11 -2.90554 0.965183 -0.102902 2.77102e-11 1.99912e-10 4.96538e-11 -10.2786 0.731801 -0.0259123 2.77291e-11 1.99912e-10 4.96483e-11 -2.22167 -0.733487 0.20892 -2.03217e-16 0.0 -3.88251e-19 -5.76773 3.76002 6.48661 0.00694547 0.172396 0.0639905 -5.06437 -15.9821 -15.3007 2.03217e-16 0.0 3.88251e-19 8.80932 -9.78055 -4.25092 0.0722427 22.1238 -0.514528 5.11638 -17.1188 14.4152
-4.48162 84.0095 35.7392 -1.5569 -0.1971 1.7784 -0.115695 1.37634 0.309547 0.160668 -5.77272 0.100851 -2.20527 9.09966 -1.83713 5.9974 -6.70765 -2.97321 -0.0 0.0 0.0 -0.0 0.0 0.0 5.69553e-15 3.84947e-14 3.76138e-15 95.6042 24.0774 -18.1462 -18.7134 -11.0779 36.2352 -0.728397 22.873 3.40985 -1.53471e-10 4.22988e-10 -3.68602e-10 -2.72121e-10 7.35653e-10 -6.3501e-10 -1.53471e-10 4.22992e-10 -3.68616e-10 7.73091 5.47488 0.417314 -1.53477e-10 4.22992e-10 -3.68603e-10 2.90554 0.965183 0.102902 -1.53466e-10 4.22994e-10 -3.686e-10 10.2786 0.731801 0.0259123 -1.53471e-10 4.22993e-10 -3.68595e-10 2.22167 -0.733487 -0.20892 5.63559e-15 3.84913e-14 3.33586e-15 -95.4428 26.5729 13.7946 18.0742 -10.4035 -34.7116 0.0808924 7.8603 -1.11216 -1.44241e-10 6.6189e-12 3.82344e-11 -2.48224e-10 1.28445e-11 6.72249e-11 -1.44251e-10 6.619e-12 3.82493e-11 -7.73091 5.47488 -0.417314 -1.44243e-10 6.61299e-12 3.82402e-11 -2.90554 0.965183 -0.102902 -1.44254e-10 6.61197e-12 3.82367e-11 -10.2786 0.731801 -0.0259123 -1.44234e-10 6.61216e-12 3.82315e-11 -2.22167 -0.733487 0.20892 -2.03217e-16 0.0 -3.88251e-19 -5.70306 3.7117 6.43746 0.0068707 0.156387 0.063 -4.99316 -15.8354 -15.1927 2.03217e-16 0.0 3.88251e-19 8.76242 -9.75831 -4.18777 0.0696711 22.0059 -0.511463 5.03721 -16.9803 14.2735
-4.48989 84.0103 35.7603 -1.5829 -0.2287 1.7705 -0.137173 1.30397 0.288452 0.135032 -5.54429 0.0923032 -2.05841 8.72891 -1.77845 5.63625 -6.39209 -2.9035 -0.0 0.0 0.0 -0.0 0.0 0.0 3.4259e-14 6.47661e-14 8.4961e-15 91.8005 23.2912 -17.3657 -18.2817 -10.8493 34.8715 -0.6483 22.0137 3.26119 -2.54388e-10 6.50512e-10 -5.47527e-10 -4.4938e-10 1.12991e-09 -9.42246e-10 -2.54381e-10 6.50507e-10 -5.47539e-10 7.73091 5.47488 0.417314 -2.54389e-10 6.50509e-10 -5.47529e-10 2.90554 0.965183 0.102902 -2.54382e-10 6.5051e-10 -5.47524e-10 10.2786 0.731801 0.0259123 -2.5439e-10 6.50511e-10 -5.4752e-10 2.22167 -0.733487 -0.20892 3.42029e-14 6.47632e-14 8.15561e-15 -91.6957 25.6009 13.1795 17.6406 -10.1741 -33.4098 0.0729485 7.59622 -1.07409 -3.21464e-10 -2.06575e-10 2.19391e-11 -5.54103e-10 -3.55083e-10 4.05907e-11 -3.21473e-10 -2.0657e-10 2.19571e-11 -7.73091 5.47488 -0.417314 -3.21464e-10 -2.06575e-10 2.19435e-11 -2.90554 0.965183 -0.102902 -3.21477e-10 -2.06575e-10 2.19432e-11 -10.2786 0.731801 -0.0259123 -3.21457e-10 -2.06575e-10 2.19382e-11 -2.22167 -0.733487 0.20892 -2.03217e-16 0.0 -3.88251e-19 -5.46951 3.49977 6.19862 0.00647825 0.0746336 0.0579558 -4.6366 -15.1406 -14.5939 2.03217e-16 0.0 3.88251e-19 8.42118 -9.62418 -3.99224 0.0610269 21.3935 -0.493092 4.69589 -16.3482 13.6735
-4.4922 84.0123 35.7833 -1.586 -0.2472 1.7505 -0.160853 1.26211 0.27655 0.127162 -5.40734 0.08742 -1.99049 8.50984 -1.73895 5.47081 -6.20494 -2.84774 -0.0 0.0 0.0 -0.0 0.0 0.0 5.25581e-14 7.43466e-14 1.08338e-14 89.5263 22.812 -16.9038 -18.0153 -10.7031 34.0544 -0.602608 21.499 3.17339 -2.96491e-10 7.58133e-10 -6.43499e-10 -5.23561e-10 1.3165e-09 -1.10725e-09 -2.96479e-10 7.58124e-10 -6.43509e-10 7.73091 5.47488 0.417314 -2.96489e-10 7.58126e-10 -6.43499e-10 2.90554 0.965183 0.102902 -2.96485e-10 7.58127e-10 -6.43496e-10 10.2786 0.731801 0.0259123 -2.96494e-10 7.58129e-10 -6.43493e-10 2.22167 -0.733487 -0.20892 5.25031e-14 7.43443e-14 1.05356e-14 -89.4641 24.9734 12.8078 17.3689 -10.0239 -32.6193 0.0689836 7.47283 -1.05629 -4.49105e-10 -3.76097e-10 3.17101e-12 -7.74634e-10 -6.47866e-10 9.29597e-12 -4.49113e-10 -3.76089e-10 3.1901e-12 -7.73091 5.47488 -0.417314 -4.49104e-10 -3.76094e-10 3.17419e-12 -2.90554 0.965183 -0.102902 -4.49118e-10 -3.76093e-10 3.17578e-12 -10.2786 0.731801 -0.0259123 -4.49098e-10 -3.76093e-10 3.17101e-12 -2.22167 -0.733487 0.20892 -2.03217e-16 0.0 -3.88251e-19 -5.33915 3.37391 6.05804 0.0062414 0.025537 0.054978 -4.43157 -14.7242 -14.2367 2.03217e-16 0.0 3.88251e-19 8.20894 -9.53963 -3.86605 0.0563905 21.021 -0.482065 4.49702 -15.962 13.316
